<svg xmlns="http://www.w3.org/2000/svg" width="24" height="25" viewBox="0 0 24 25" fill="none">
    <g clip-path="url(#clip0_4722_844)">
        <path d="M13.2193 18.6161L22.905 8.91326C23.0657 8.75389 23.1932 8.56429 23.2803 8.35539C23.3673 8.14649 23.4121 7.92242 23.4121 7.69611C23.4121 7.46981 23.3673 7.24574 23.2803 7.03684C23.1932 6.82794 23.0657 6.63834 22.905 6.47897C22.5838 6.15968 22.1493 5.98047 21.6965 5.98047C21.2436 5.98047 20.8091 6.15968 20.4879 6.47897L11.9165 14.9647L3.43074 6.47897C3.10955 6.15968 2.67506 5.98047 2.22217 5.98047C1.76928 5.98047 1.33479 6.15968 1.0136 6.47897C0.85162 6.63774 0.722757 6.82707 0.634478 7.036C0.546198 7.24493 0.500257 7.4693 0.499315 7.69611C0.500257 7.92292 0.546198 8.14729 0.634478 8.35622C0.722757 8.56515 0.85162 8.75449 1.0136 8.91325L10.6993 18.6161C10.8598 18.7901 11.0547 18.929 11.2715 19.024C11.4884 19.119 11.7226 19.168 11.9593 19.168C12.1961 19.168 12.4302 19.119 12.6471 19.024C12.864 18.929 13.0588 18.7901 13.2193 18.6161Z" fill="#040F16"/>
    </g>
    <defs>
        <clipPath id="clip0_4722_844">
            <rect width="24" height="24" fill="white" transform="translate(24 0.546875) rotate(90)"/>
        </clipPath>
    </defs>
</svg>