<svg width="104" height="44" viewBox="0 0 104 44" fill="none" xmlns="http://www.w3.org/2000/svg">
    <rect width="104" height="44" rx="12" fill="url(#paint0_linear_5228_12969)"/>
    <path d="M8 36.48V8.48H14.48V31.2H28.52V36.48H8Z" fill="#38B6FF"/>
    <path d="M63.7006 36.48H57.6206L57.5806 19.68L49.3406 33.52H46.4206L38.2206 20.04V36.48H32.1406V8.48H37.5006L47.9806 25.88L58.3006 8.48H63.6206L63.7006 36.48Z" fill="#38B6FF"/>
    <path d="M89.2637 30.24V22.04H95.1838V33.4C92.1038 35.72 87.8638 36.96 83.8638 36.96C75.0638 36.96 68.5838 30.92 68.5838 22.48C68.5838 14.04 75.0638 8 83.9837 8C88.9037 8 92.9837 9.68 95.7038 12.84L91.5438 16.68C89.5038 14.52 87.1438 13.52 84.3037 13.52C78.8637 13.52 75.1438 17.16 75.1438 22.48C75.1438 27.72 78.8637 31.44 84.2237 31.44C85.9837 31.44 87.6237 31.12 89.2637 30.24Z" fill="#38B6FF"/>
    <defs>
        <linearGradient id="paint0_linear_5228_12969" x1="104.18" y1="0.469727" x2="0.792324" y2="49.3675" gradientUnits="userSpaceOnUse">
            <stop offset="0.01" stop-color="#1C2029"/>
            <stop offset="0.1" stop-color="#2A2E37"/>
            <stop offset="0.2" stop-color="#1C2029"/>
            <stop offset="0.3" stop-color="#2A2E37"/>
            <stop offset="0.4" stop-color="#1C2029"/>
            <stop offset="0.5" stop-color="#2A2E37"/>
            <stop offset="0.6" stop-color="#1C2029"/>
            <stop offset="0.7" stop-color="#2A2E37"/>
            <stop offset="0.8" stop-color="#1C2029"/>
            <stop offset="0.9" stop-color="#2A2E37"/>
            <stop offset="1" stop-color="#1C2029"/>
        </linearGradient>
    </defs>
</svg>
