<svg xmlns="http://www.w3.org/2000/svg" width="88" height="29" viewBox="0 0 88 29" fill="none">
    <path d="M0 28.48V0.479999H6.48V23.2H20.52V28.48H0Z" fill="#38B6FF"/>
    <path d="M55.7006 28.48H49.6206L49.5806 11.68L41.3406 25.52H38.4206L30.2206 12.04V28.48H24.1406V0.479999H29.5006L39.9806 17.88L50.3006 0.479999H55.6206L55.7006 28.48Z" fill="#38B6FF"/>
    <path d="M81.2637 22.24V14.04H87.1838V25.4C84.1038 27.72 79.8638 28.96 75.8638 28.96C67.0638 28.96 60.5838 22.92 60.5838 14.48C60.5838 6.04 67.0638 0 75.9837 0C80.9037 0 84.9837 1.68 87.7038 4.84L83.5438 8.68C81.5038 6.52 79.1438 5.52 76.3037 5.52C70.8637 5.52 67.1438 9.16 67.1438 14.48C67.1438 19.72 70.8637 23.44 76.2237 23.44C77.9837 23.44 79.6237 23.12 81.2637 22.24Z" fill="#38B6FF"/>
</svg>