<svg width="208" height="52" viewBox="0 0 208 52" fill="none" xmlns="http://www.w3.org/2000/svg">
<path fill-rule="evenodd" clip-rule="evenodd" d="M8.66602 8.7207H23.9371L23.9936 43.3319H8.7523L8.66602 8.7207Z" fill="#0B4D8F"/>
<path fill-rule="evenodd" clip-rule="evenodd" d="M27.6973 8.66602H42.9406L43.0249 43.2802H27.7558L27.6973 8.66602Z" fill="#0B4D8F"/>
<path d="M87.656 39.4097H64.6934L64.864 12.5918H70.1335L69.9629 35.1409H87.6828L87.656 39.4097Z" fill="#0B4D8F"/>
<path d="M97.913 12.5918L108.253 25.8687L118.51 12.5918H124.18L123.979 39.4097H118.709L118.85 19.7578H118.651L108.909 32.2427H107L97.3139 19.7578H97.1423L96.9995 39.4097H92.0156L92.215 12.5918H97.913Z" fill="#0B4D8F"/>
<path d="M156.097 39.1171L152.564 39.6968L152.023 37.9579C150.882 38.5891 149.687 39.0635 148.404 39.3812C147.121 39.7494 145.668 39.9082 144.017 39.9082C141.425 39.9082 139.116 39.4864 137.094 38.6437C135.042 37.8011 133.332 36.6408 131.994 35.1659C130.91 34.0067 130.057 32.636 129.429 31.0569C128.801 29.4758 128.488 27.7895 128.515 25.9464C128.515 23.9971 128.944 22.2056 129.741 20.5203C130.54 18.7824 131.651 17.3065 133.102 16.0936C134.527 14.8302 136.18 13.8297 138.087 13.1449C139.997 12.461 142.078 12.0918 144.327 12.0918C146.808 12.0918 148.971 12.461 150.823 13.1449C152.676 13.8297 154.469 14.9354 156.208 16.5174L152.703 19.6776C151.421 18.5194 150.139 17.6747 148.886 17.2023C147.603 16.7279 146.066 16.4648 144.299 16.4648C142.846 16.4648 141.45 16.7279 140.168 17.2023C138.885 17.6747 137.746 18.4132 136.776 19.3104C135.865 20.0985 135.181 21.0463 134.67 22.2056C134.128 23.3658 133.871 24.6303 133.871 25.9464C133.871 27.4213 134.127 28.7384 134.64 29.8976C135.181 31.0569 135.923 32.1099 136.864 32.901C137.803 33.7426 138.884 34.3749 140.081 34.8503C141.278 35.2721 142.616 35.5341 144.042 35.5341C145.469 35.5341 146.664 35.3753 147.802 35.0081C148.943 34.6895 149.939 34.2707 150.879 33.7426L150.908 28.1597L143.328 27.8441L143.357 23.7857H156.207L156.093 39.1181L156.097 39.1171Z" fill="#0B4D8F"/>
</svg>
