<svg xmlns="http://www.w3.org/2000/svg" width="202" height="16" viewBox="0 0 202 16" fill="none">
  <path fill-rule="evenodd" clip-rule="evenodd" d="M0 0.0253906H7.04799L7.07408 15.9993H0.0398243L0 0.0253906Z" fill="#0B4D8F"/>
  <path fill-rule="evenodd" clip-rule="evenodd" d="M8.7832 0H15.8184L15.8573 15.9753H8.81021L8.7832 0Z" fill="#0B4D8F"/>
  <path d="M37.2644 14.1255H26.6665L26.7452 1.74838H29.1773L29.0985 12.1554H37.2767L37.2639 14.1255H37.2644ZM41.4583 3.81612L41.3924 14.1255H38.9594L39.0253 3.81612H41.4583ZM52.5294 3.81612L52.5166 5.81012H43.7324L43.7457 3.81612H52.529H52.5294ZM46.1521 8.07117V8.11973H51.7934L51.7792 10.0894H46.1388L46.1131 14.126H43.6802L43.72 8.07163H46.1521V8.07117ZM53.7782 3.81612H64.311L64.2978 5.81012H60.2352L60.1693 14.1255H57.7496L57.8023 5.81012H53.7658L53.7786 3.81612H53.7782ZM75.4614 1.74838L80.2334 7.87603L84.9675 1.74838H87.5845L87.4915 14.1255H85.0595L85.1245 5.05567H85.0325L80.5365 10.8178H79.6553L75.1849 5.05567H75.1057L75.0398 14.1255H72.7396L72.8316 1.74838H75.4614ZM89.8329 3.81612H98.8653L98.8525 5.81012H89.8201L89.8329 3.81612ZM92.2389 7.85221V7.87603H98.1288L98.1169 9.84621H92.2261L92.1991 12.1558H99.0369L99.0241 14.126H89.767L89.8069 7.85267H92.2389V7.85221ZM105.939 3.81612C106.808 3.81612 107.583 3.96179 108.293 4.20549C108.991 4.473 109.595 4.83763 110.108 5.29891C110.608 5.76156 110.989 6.29522 111.279 6.92782C111.554 7.5595 111.699 8.24066 111.699 8.97037C111.686 9.72436 111.541 10.4051 111.252 11.0372C110.963 11.6693 110.555 12.2291 110.055 12.6666C109.543 13.1283 108.925 13.4929 108.228 13.7362C107.518 14.0041 106.729 14.126 105.874 14.126H101.062L101.141 3.81658H105.94L105.939 3.81612ZM103.547 5.81058L103.507 12.1558H105.795C106.36 12.1558 106.847 12.083 107.268 11.913C107.702 11.7426 108.057 11.5232 108.373 11.2071C108.964 10.6483 109.267 9.89431 109.267 8.97037C109.267 8.48436 109.188 8.04735 109.044 7.68181C108.886 7.29199 108.648 6.95164 108.359 6.68458C108.057 6.41707 107.689 6.19857 107.268 6.02862C106.848 5.8825 106.374 5.81058 105.835 5.81058H103.548H103.547ZM116.09 3.81612L116.012 14.1255H113.592L113.658 3.81612H116.09H116.09ZM125.321 3.81612L130.291 14.1255H127.662L126.78 12.301H121.205L120.298 14.1255H117.734L122.85 3.81612H125.321ZM122.138 10.3079H125.848L124.098 6.27094H123.941L122.139 10.3079H122.138ZM151.185 14.0041L149.555 14.2717L149.305 13.4691C148.778 13.7605 148.227 13.9794 147.635 14.126C147.043 14.2959 146.372 14.3692 145.61 14.3692C144.414 14.3692 143.348 14.1746 142.415 13.7856C141.468 13.3967 140.679 12.8613 140.061 12.1806C139.561 11.6455 139.167 11.0129 138.877 10.2841C138.588 9.55442 138.443 8.77615 138.456 7.92551C138.456 7.02585 138.653 6.19902 139.021 5.42121C139.39 4.61913 139.903 3.93797 140.572 3.3782C141.23 2.79508 141.993 2.33334 142.873 2.01727C143.755 1.70165 144.715 1.53125 145.753 1.53125C146.898 1.53125 147.896 1.70165 148.751 2.01727C149.607 2.33334 150.434 2.84363 151.237 3.5738L149.619 5.03231C149.027 4.49774 148.436 4.10792 147.857 3.88987C147.265 3.67091 146.556 3.54952 145.74 3.54952C145.07 3.54952 144.425 3.67091 143.834 3.88987C143.242 4.10792 142.716 4.44872 142.268 4.86282C141.848 5.22653 141.532 5.66399 141.296 6.19902C141.046 6.73451 140.928 7.3181 140.928 7.92551C140.928 8.6062 141.046 9.21407 141.282 9.7491C141.532 10.2841 141.875 10.7701 142.309 11.1352C142.742 11.5237 143.241 11.8155 143.794 12.0349C144.346 12.2296 144.964 12.3505 145.622 12.3505C146.28 12.3505 146.832 12.2772 147.357 12.1077C147.884 11.9607 148.343 11.7674 148.777 11.5237L148.79 8.94701L145.292 8.80134L145.306 6.92828H151.236L151.183 14.0046L151.185 14.0041ZM163.557 7.60898C163.545 8.02262 163.479 8.43534 163.334 8.80089C163.203 9.19025 163.006 9.52922 162.742 9.84621C162.559 10.0647 162.348 10.2841 162.085 10.4536C161.835 10.6483 161.573 10.8178 161.309 10.9648L163.321 14.1255H160.56L158.968 11.4266H155.944L155.931 14.1255H153.499L153.578 3.81612H159.218C159.916 3.81612 160.56 3.93751 161.152 4.18075C161.73 4.42399 162.229 4.76434 162.611 5.20271C162.913 5.51787 163.15 5.88204 163.308 6.29522C163.479 6.70932 163.557 7.14678 163.557 7.60852L163.557 7.60898ZM155.959 9.45685H159.087C159.732 9.45685 160.258 9.23743 160.639 8.84944C160.955 8.4839 161.125 8.07072 161.125 7.60852C161.125 7.09868 160.955 6.66031 160.587 6.3195C160.245 5.97915 159.744 5.81012 159.114 5.81012H155.984L155.959 9.45685ZM170.974 3.64526C171.855 3.64526 172.67 3.76665 173.406 4.05844C174.156 4.35024 174.8 4.74006 175.326 5.25035C175.853 5.73637 176.246 6.29522 176.536 6.92782C176.813 7.5595 176.957 8.24066 176.957 8.97037C176.944 9.72436 176.785 10.4298 176.483 11.0867C176.181 11.7674 175.734 12.3505 175.155 12.837C174.616 13.2987 173.998 13.6638 173.275 13.9313C172.552 14.1988 171.764 14.3207 170.908 14.3207C170.053 14.3207 169.213 14.1746 168.476 13.9066C167.74 13.6391 167.109 13.2502 166.582 12.7637C166.057 12.3015 165.636 11.7188 165.347 11.0619C165.044 10.4303 164.9 9.72482 164.9 8.97083C164.913 8.2173 165.084 7.51232 165.412 6.83071C165.741 6.15093 166.189 5.56688 166.766 5.08087C167.305 4.61913 167.923 4.27878 168.621 4.00989C169.33 3.76711 170.12 3.64572 170.974 3.64572L170.974 3.64526ZM167.332 8.97037C167.332 9.48158 167.411 9.94332 167.595 10.3565C167.779 10.7701 168.028 11.111 168.344 11.4018C169.001 12.0344 169.87 12.35 170.922 12.35C171.421 12.35 171.895 12.2529 172.316 12.1073C172.749 11.9602 173.118 11.7179 173.433 11.4508C174.157 10.8425 174.511 10.0157 174.524 8.96991C174.524 8.45962 174.445 7.99742 174.261 7.55905C174.077 7.14632 173.815 6.78215 173.472 6.49082C173.157 6.2233 172.789 6.00343 172.354 5.85776C171.921 5.68781 171.46 5.61544 170.974 5.61544C170.461 5.61544 169.975 5.68781 169.527 5.85776C169.081 6.02816 168.686 6.27094 168.344 6.58701C168.041 6.85499 167.791 7.19534 167.607 7.60852C167.423 8.02216 167.332 8.4839 167.332 8.96991L167.332 8.97037ZM188.843 9.77292C188.83 10.4293 188.698 11.0372 188.422 11.6212C188.16 12.1801 187.779 12.6661 187.292 13.1036C186.858 13.4687 186.331 13.76 185.739 13.979C185.149 14.1984 184.504 14.2955 183.794 14.2955C183.018 14.2955 182.335 14.1741 181.73 13.9547C181.125 13.7124 180.599 13.3963 180.164 13.0065C179.731 12.569 179.389 12.0825 179.139 11.5475C178.876 10.9882 178.758 10.4046 178.758 9.77292L178.797 3.81612H181.23L181.19 9.84621C181.19 10.5755 181.427 11.1586 181.901 11.597C182.399 12.083 183.031 12.3262 183.807 12.3262C184.202 12.3262 184.556 12.2534 184.872 12.1315C185.187 12.0102 185.464 11.8402 185.686 11.6217C185.91 11.427 186.082 11.159 186.213 10.8673C186.345 10.5759 186.41 10.2351 186.41 9.84667L186.45 3.81658H188.882L188.842 9.77338L188.843 9.77292ZM201.019 7.63325C201.006 8.14401 200.901 8.60574 200.704 9.04458C200.493 9.48204 200.217 9.87003 199.862 10.2113C199.467 10.6002 198.98 10.892 198.428 11.1114C197.864 11.3295 197.271 11.4275 196.627 11.4275H193.524L193.498 14.1265H191.078L191.104 9.45776H196.719C197.284 9.45776 197.732 9.28782 198.06 8.92227C198.402 8.55765 198.587 8.14446 198.587 7.63371C198.587 7.39093 198.547 7.17197 198.456 6.95256C198.363 6.73451 198.258 6.56457 198.113 6.39416C197.942 6.19902 197.718 6.05336 197.456 5.95579C197.193 5.85868 196.89 5.81104 196.575 5.81104H191.131L191.144 3.81704H196.68C197.324 3.81704 197.902 3.91461 198.455 4.13311C198.994 4.32642 199.467 4.6434 199.848 5.00712C200.217 5.34792 200.492 5.73729 200.703 6.17566C200.913 6.6374 201.018 7.12388 201.018 7.63371L201.019 7.63325Z" fill="#0B4D8F"/>
</svg>