<svg
        width="16"
        height="16"
        viewBox="0 0 16 16"
        fill="none"
        xmlns="http://www.w3.org/2000/svg"
>
    <g clip-path="url(#clip0_4498_3027)">
        <path
                d="M8.0001 5.51832V1.65625C11.4809 1.65625 14.3449 4.52025 14.3449 8.00108C14.3449 11.4819 11.4809 14.3459 8.0001 14.3459C4.51927 14.3459 1.65527 11.4819 1.65527 8.00108C1.65527 6.31887 2.32396 4.70397 3.51348 3.51446"
                stroke="#040F16"
                stroke-width="1.5"
                stroke-miterlimit="10"
        />
        <path
                d="M4.85103 5.63312C4.74757 5.52966 4.68945 5.38935 4.68945 5.24305C4.68945 5.09674 4.74757 4.95643 4.85103 4.85298C4.95448 4.74953 5.09479 4.69141 5.24109 4.69141C5.3874 4.69141 5.52771 4.74953 5.63116 4.85298L8.77985 7.22153C8.88524 7.32332 8.96931 7.44508 9.02714 7.5797C9.08497 7.71433 9.11541 7.85912 9.11668 8.00564C9.11795 8.15215 9.09003 8.29746 9.03455 8.43307C8.97907 8.56868 8.89714 8.69188 8.79353 8.79548C8.68992 8.89909 8.56672 8.98102 8.43111 9.03651C8.2955 9.09199 8.1502 9.11991 8.00369 9.11863C7.85717 9.11736 7.71238 9.08692 7.57775 9.02909C7.44313 8.97126 7.32137 8.8872 7.21958 8.78181L4.85103 5.63312Z"
                fill="#040F16"
        />
    </g>
    <defs>
        <clipPath id="clip0_4498_3027">
            <rect width="16" height="16" fill="white" />
        </clipPath>
    </defs>
</svg>