<svg width="40" height="41" viewBox="0 0 40 41" fill="none" xmlns="http://www.w3.org/2000/svg">
<path fill-rule="evenodd" clip-rule="evenodd" d="M20 39.0742C29.665 39.0742 37.5 31.2392 37.5 21.5742C37.5 11.9092 29.665 4.07422 20 4.07422C10.335 4.07422 2.5 11.9092 2.5 21.5742C2.5 24.7128 3.32625 27.6584 4.77309 30.2054L2.5 39.0742L11.6436 36.954C14.1267 38.306 16.9736 39.0742 20 39.0742ZM20 36.3819C28.1781 36.3819 34.8077 29.7523 34.8077 21.5742C34.8077 13.3962 28.1781 6.76653 20 6.76653C11.8219 6.76653 5.19231 13.3962 5.19231 21.5742C5.19231 24.7318 6.18063 27.6585 7.8648 30.062L6.53846 35.0358L11.5999 33.7704C13.9867 35.4174 16.8807 36.3819 20 36.3819Z" fill="#BFC8D0"/>
<path d="M35 20.3242C35 28.6085 28.2843 35.3242 20 35.3242C16.8402 35.3242 13.9086 34.3472 11.4908 32.6788L6.36364 33.9606L7.7072 28.9222C6.00116 26.4876 5 23.5228 5 20.3242C5 12.0399 11.7157 5.32422 20 5.32422C28.2843 5.32422 35 12.0399 35 20.3242Z" fill="url(#paint0_linear_5146_13891)"/>
<path fill-rule="evenodd" clip-rule="evenodd" d="M20 37.8242C29.665 37.8242 37.5 29.9892 37.5 20.3242C37.5 10.6592 29.665 2.82422 20 2.82422C10.335 2.82422 2.5 10.6592 2.5 20.3242C2.5 23.4628 3.32625 26.4084 4.77309 28.9554L2.5 37.8242L11.6436 35.704C14.1267 37.056 16.9736 37.8242 20 37.8242ZM20 35.1319C28.1781 35.1319 34.8077 28.5023 34.8077 20.3242C34.8077 12.1462 28.1781 5.51653 20 5.51653C11.8219 5.51653 5.19231 12.1462 5.19231 20.3242C5.19231 23.4818 6.18063 26.4085 7.8648 28.812L6.53846 33.7858L11.5999 32.5204C13.9867 34.1674 16.8807 35.1319 20 35.1319Z" fill="white"/>
<path d="M15.625 12.2009C15.2089 11.3652 14.5707 11.4392 13.9258 11.4392C12.7735 11.4392 10.9766 12.8195 10.9766 15.3885C10.9766 17.4939 11.9043 19.7986 15.0305 23.2462C18.0476 26.5734 22.0117 28.2946 25.3027 28.236C28.5938 28.1774 29.2709 25.3454 29.2709 24.389C29.2709 23.965 29.0078 23.7535 28.8266 23.6961C27.7051 23.1579 25.6367 22.155 25.166 21.9666C24.6954 21.7781 24.4496 22.033 24.2969 22.1716C23.8701 22.5784 23.0241 23.777 22.7344 24.0466C22.4447 24.3162 22.0129 24.1798 21.8331 24.0779C21.1718 23.8125 19.3787 23.0149 17.9493 21.6293C16.1817 19.9158 16.0779 19.3262 15.7449 18.8014C15.4784 18.3816 15.674 18.124 15.7715 18.0115C16.1524 17.572 16.6783 16.8935 16.9141 16.5564C17.1499 16.2192 16.9627 15.7073 16.8504 15.3885C16.3672 14.0173 15.9579 12.8695 15.625 12.2009Z" fill="white"/>
<defs>
<linearGradient id="paint0_linear_5146_13891" x1="33.125" y1="9.07422" x2="5" y2="35.3242" gradientUnits="userSpaceOnUse">
<stop stop-color="#5BD066"/>
<stop offset="1" stop-color="#27B43E"/>
</linearGradient>
</defs>
</svg>
