<svg width="25" height="24" viewBox="0 0 25 24" fill="none" xmlns="http://www.w3.org/2000/svg">
    <path
        d="M13.67 2H6.5C5.4 2 4.5 2.9 4.5 4V20C4.5 21.1 5.4 22 6.5 22H18.5C19.6 22 20.5 21.1 20.5 20V8.83C20.5 8.3 20.29 7.79 19.91 7.42L15.08 2.59C14.71 2.21 14.2 2 13.67 2ZM12.5 10C13.6 10 14.5 10.9 14.5 12C14.5 13.1 13.6 14 12.5 14C11.4 14 10.5 13.1 10.5 12C10.5 10.9 11.4 10 12.5 10ZM16.5 18H8.5V17.43C8.5 16.62 8.98 15.9 9.72 15.58C10.57 15.21 11.51 15 12.5 15C13.49 15 14.43 15.21 15.28 15.58C16.02 15.9 16.5 16.62 16.5 17.43V18Z"
        fill="#inherit"
    />
</svg>
