<svg width="32" height="32" viewBox="0 0 32 32" fill="none" xmlns="http://www.w3.org/2000/svg">
<path d="M24.3801 23.0523C24.9001 22.5323 24.9001 21.6923 24.3801 21.1723L19.2201 15.999L24.3935 10.8257C24.9135 10.3057 24.9135 9.46566 24.3935 8.94566C23.8735 8.42566 23.0335 8.42566 22.5135 8.94566L16.3935 15.0657C15.8735 15.5857 15.8735 16.4257 16.3935 16.9457L22.5135 23.0657C23.0201 23.5723 23.8601 23.5723 24.3801 23.0523Z" fill="#787579"/>
<path d="M15.5935 23.0523C16.1135 22.5323 16.1135 21.6923 15.5935 21.1723L10.4335 15.999L15.6068 10.8257C16.1268 10.3057 16.1268 9.46566 15.6068 8.94566C15.0868 8.42566 14.2468 8.42566 13.7268 8.94566L7.6068 15.0657C7.0868 15.5857 7.0868 16.4257 7.6068 16.9457L13.7268 23.0657C14.2335 23.5723 15.0735 23.5723 15.5935 23.0523Z" fill="#787579"/>
</svg>
