<svg width="24" height="24" viewBox="0 0 24 24" fill="none" xmlns="http://www.w3.org/2000/svg">
    <path
        d="M2.80583 2.66667H10.8058C11.5392 2.66667 12.1392 2.06667 12.1392 1.33333C12.1392 0.6 11.5392 0 10.8058 0H2.80583C1.33916 0 0.13916 1.2 0.13916 2.66667V21.3333C0.13916 22.8 1.33916 24 2.80583 24H10.8058C11.5392 24 12.1392 23.4 12.1392 22.6667C12.1392 21.9333 11.5392 21.3333 10.8058 21.3333H2.80583V2.66667Z"
        fill="#inherit"
    />
    <path
        d="M23.6725 11.5333L19.9525 7.81333C19.5258 7.38667 18.8058 7.68 18.8058 8.28V10.6667H9.47249C8.73916 10.6667 8.13916 11.2667 8.13916 12C8.13916 12.7333 8.73916 13.3333 9.47249 13.3333H18.8058V15.72C18.8058 16.32 19.5258 16.6133 19.9392 16.1867L23.6592 12.4667C23.9258 12.2133 23.9258 11.7867 23.6725 11.5333Z"
        fill="#inherit"
    />
</svg>
