<svg width="32" height="32" viewBox="0 0 32 32" fill="none" xmlns="http://www.w3.org/2000/svg">
<path d="M14.4276 16.7C14.1343 16.6867 13.8409 16.6733 13.5343 16.6733C10.3076 16.6733 7.29427 17.5667 4.72093 19.1C3.5476 19.7933 2.8676 21.1 2.8676 22.4733V24.6733C2.8676 25.4067 3.4676 26.0067 4.20093 26.0067H15.2143C14.1609 24.5 13.5343 22.66 13.5343 20.6733C13.5343 19.2467 13.8676 17.9133 14.4276 16.7Z" fill="white"/>
<path d="M13.5343 15.34C16.4798 15.34 18.8676 12.9522 18.8676 10.0067C18.8676 7.06115 16.4798 4.67334 13.5343 4.67334C10.5887 4.67334 8.20093 7.06115 8.20093 10.0067C8.20093 12.9522 10.5887 15.34 13.5343 15.34Z" fill="white"/>
<path d="M27.8676 20.6733C27.8676 20.38 27.8276 20.1133 27.7876 19.8333L28.9076 18.86C29.1476 18.6467 29.2009 18.3 29.0409 18.02L28.2543 16.66C28.0943 16.38 27.7609 16.26 27.4676 16.3667L26.0543 16.8467C25.6276 16.4867 25.1476 16.2067 24.6143 16.0067L24.3209 14.5533C24.2543 14.2467 23.9876 14.02 23.6676 14.02H22.0943C21.7743 14.02 21.5076 14.2467 21.4409 14.5533L21.1476 16.0067C20.6143 16.2067 20.1343 16.4867 19.7076 16.8467L18.2943 16.3667C17.9876 16.26 17.6676 16.3933 17.5076 16.66L16.7209 18.02C16.5609 18.3 16.6143 18.6467 16.8543 18.86L17.9743 19.8333C17.9343 20.1133 17.8943 20.38 17.8943 20.6733C17.8943 20.9667 17.9343 21.2333 17.9743 21.5133L16.8543 22.4867C16.6143 22.7 16.5609 23.0467 16.7209 23.3267L17.5076 24.6867C17.6676 24.9667 18.0009 25.0867 18.2943 24.98L19.7076 24.5C20.1343 24.86 20.6143 25.14 21.1476 25.34L21.4409 26.7933C21.5076 27.1 21.7743 27.3267 22.0943 27.3267H23.6676C23.9876 27.3267 24.2543 27.1 24.3209 26.7933L24.6143 25.34C25.1476 25.14 25.6276 24.86 26.0543 24.5L27.4676 24.98C27.7743 25.0867 28.0943 24.9533 28.2543 24.6867L29.0409 23.3267C29.2009 23.0467 29.1476 22.7 28.9076 22.4867L27.7876 21.5133C27.8276 21.2333 27.8676 20.9667 27.8676 20.6733ZM22.8676 23.34C21.4009 23.34 20.2009 22.14 20.2009 20.6733C20.2009 19.2067 21.4009 18.0067 22.8676 18.0067C24.3343 18.0067 25.5343 19.2067 25.5343 20.6733C25.5343 22.14 24.3343 23.34 22.8676 23.34Z" fill="white"/>
</svg>
