<svg width="48" height="48" viewBox="0 0 48 48" fill="none" xmlns="http://www.w3.org/2000/svg">
<path d="M0 24C0 10.7452 10.7452 0 24 0C37.2548 0 48 10.7452 48 24C48 37.2548 37.2548 48 24 48C10.7452 48 0 37.2548 0 24Z" fill="white"/>
<path d="M0 24C0 10.7452 10.7452 0 24 0C37.2548 0 48 10.7452 48 24C48 37.2548 37.2548 48 24 48C10.7452 48 0 37.2548 0 24Z" stroke="#E5E7EB"/>
<path d="M33.6283 28.3568L30.2417 27.9701C29.4283 27.8768 28.6283 28.1568 28.055 28.7301L25.6017 31.1834C21.8283 29.2634 18.735 26.1834 16.815 22.3968L19.2817 19.9301C19.855 19.3568 20.135 18.5568 20.0417 17.7434L19.655 14.3834C19.495 13.0368 18.3617 12.0234 17.0017 12.0234H14.695C13.1883 12.0234 11.935 13.2768 12.0283 14.7834C12.735 26.1701 21.8417 35.2634 33.215 35.9701C34.7217 36.0634 35.975 34.8101 35.975 33.3034V30.9968C35.9883 29.6501 34.975 28.5168 33.6283 28.3568Z" fill="#566DD6"/>
</svg>
