<svg width="48" height="48" viewBox="0 0 48 48" fill="none" xmlns="http://www.w3.org/2000/svg">
<path d="M0 24C0 10.7452 10.7452 0 24 0C37.2548 0 48 10.7452 48 24C48 37.2548 37.2548 48 24 48C10.7452 48 0 37.2548 0 24Z" fill="white"/>
<path d="M0 24C0 10.7452 10.7452 0 24 0C37.2548 0 48 10.7452 48 24C48 37.2548 37.2548 48 24 48C10.7452 48 0 37.2548 0 24Z" stroke="#E5E7EB"/>
<path d="M29.9993 24.0013C31.8393 24.0013 33.3193 22.508 33.3193 20.668C33.3193 18.828 31.8393 17.3346 29.9993 17.3346C28.1593 17.3346 26.666 18.828 26.666 20.668C26.666 22.508 28.1593 24.0013 29.9993 24.0013ZM19.9993 22.668C22.2127 22.668 23.986 20.8813 23.986 18.668C23.986 16.4546 22.2127 14.668 19.9993 14.668C17.786 14.668 15.9993 16.4546 15.9993 18.668C15.9993 20.8813 17.786 22.668 19.9993 22.668ZM29.9993 26.668C27.5593 26.668 22.666 27.8946 22.666 30.3346V32.0013C22.666 32.7346 23.266 33.3346 23.9993 33.3346H35.9993C36.7327 33.3346 37.3327 32.7346 37.3327 32.0013V30.3346C37.3327 27.8946 32.4394 26.668 29.9993 26.668ZM19.9993 25.3346C16.8927 25.3346 10.666 26.8946 10.666 30.0013V32.0013C10.666 32.7346 11.266 33.3346 11.9993 33.3346H19.9993V30.3346C19.9993 29.2013 20.4393 27.2146 23.1593 25.708C21.9993 25.468 20.8793 25.3346 19.9993 25.3346Z" fill="#566DD6"/>
</svg>
