<svg width="49" height="48" viewBox="0 0 49 48" fill="none" xmlns="http://www.w3.org/2000/svg">
<path d="M0.666016 24C0.666016 10.7452 11.4112 0 24.666 0C37.9208 0 48.666 10.7452 48.666 24C48.666 37.2548 37.9208 48 24.666 48C11.4112 48 0.666016 37.2548 0.666016 24Z" fill="white"/>
<path d="M0.666016 24C0.666016 10.7452 11.4112 0 24.666 0C37.9208 0 48.666 10.7452 48.666 24C48.666 37.2548 37.9208 48 24.666 48C11.4112 48 0.666016 37.2548 0.666016 24Z" stroke="#E5E7EB"/>
<path d="M36.6654 25.332H28.6654C27.932 25.332 27.332 24.732 27.332 23.9987C27.332 23.2654 27.932 22.6654 28.6654 22.6654H36.6654C37.3987 22.6654 37.9987 23.2654 37.9987 23.9987C37.9987 24.732 37.3987 25.332 36.6654 25.332ZM36.6654 17.332H28.6654C27.932 17.332 27.332 17.932 27.332 18.6654C27.332 19.3987 27.932 19.9987 28.6654 19.9987H36.6654C37.3987 19.9987 37.9987 19.3987 37.9987 18.6654C37.9987 17.932 37.3987 17.332 36.6654 17.332ZM28.6654 30.6654H36.6654C37.3987 30.6654 37.9987 30.0654 37.9987 29.332C37.9987 28.5987 37.3987 27.9987 36.6654 27.9987H28.6654C27.932 27.9987 27.332 28.5987 27.332 29.332C27.332 30.0654 27.932 30.6654 28.6654 30.6654ZM24.6654 19.9987V27.9987C24.6654 29.4654 23.4654 30.6654 21.9987 30.6654H13.9987C12.532 30.6654 11.332 29.4654 11.332 27.9987V19.9987C11.332 18.532 12.532 17.332 13.9987 17.332H21.9987C23.4654 17.332 24.6654 18.532 24.6654 19.9987ZM21.8654 26.932L20.1854 24.692C19.9187 24.3454 19.3987 24.332 19.1187 24.6787L17.332 27.012L16.1987 25.6387C15.932 25.3054 15.4254 25.3187 15.1587 25.652L14.172 26.9187C13.8254 27.3587 14.1454 27.9987 14.692 27.9987H21.332C21.8787 27.9987 22.1987 27.372 21.8654 26.932Z" fill="#566DD6"/>
</svg>
