<svg width="48" height="48" viewBox="0 0 48 48" fill="none" xmlns="http://www.w3.org/2000/svg">
<path d="M0 24C0 10.7452 10.7452 0 24 0C37.2548 0 48 10.7452 48 24C48 37.2548 37.2548 48 24 48C10.7452 48 0 37.2548 0 24Z" fill="white"/>
<path d="M0 24C0 10.7452 10.7452 0 24 0C37.2548 0 48 10.7452 48 24C48 37.2548 37.2548 48 24 48C10.7452 48 0 37.2548 0 24Z" stroke="#E5E7EB"/>
<path d="M23.9993 29.3333C26.2085 29.3333 27.9993 27.5425 27.9993 25.3333C27.9993 23.1242 26.2085 21.3333 23.9993 21.3333C21.7902 21.3333 19.9993 23.1242 19.9993 25.3333C19.9993 27.5425 21.7902 29.3333 23.9993 29.3333Z" fill="#566DD6"/>
<path d="M34.666 14.6667H30.4394L28.786 12.8667C28.2927 12.32 27.5727 12 26.826 12H21.1727C20.426 12 19.706 12.32 19.1993 12.8667L17.5593 14.6667H13.3327C11.866 14.6667 10.666 15.8667 10.666 17.3333V33.3333C10.666 34.8 11.866 36 13.3327 36H34.666C36.1327 36 37.3327 34.8 37.3327 33.3333V17.3333C37.3327 15.8667 36.1327 14.6667 34.666 14.6667ZM23.9993 32C20.3193 32 17.3327 29.0133 17.3327 25.3333C17.3327 21.6533 20.3193 18.6667 23.9993 18.6667C27.6793 18.6667 30.666 21.6533 30.666 25.3333C30.666 29.0133 27.6793 32 23.9993 32Z" fill="#566DD6"/>
</svg>
