<svg width="49" height="48" viewBox="0 0 49 48" fill="none" xmlns="http://www.w3.org/2000/svg">
<path d="M0.332031 24C0.332031 10.7452 11.0772 0 24.332 0C37.5869 0 48.332 10.7452 48.332 24C48.332 37.2548 37.5869 48 24.332 48C11.0772 48 0.332031 37.2548 0.332031 24Z" fill="#566DD6"/>
<path d="M0.332031 24C0.332031 10.7452 11.0772 0 24.332 0C37.5869 0 48.332 10.7452 48.332 24C48.332 37.2548 37.5869 48 24.332 48C11.0772 48 0.332031 37.2548 0.332031 24Z" stroke="#566DD6"/>
<path d="M19 36C19.7333 36 20.3333 35.4 20.3333 34.6667V32H24.3333C25.0667 32 25.6667 31.4 25.6667 30.6667C25.6667 29.9333 25.0667 29.3333 24.3333 29.3333H20.3333V26.6667H26.3333C30.6267 26.6667 34.0533 22.9867 33.6267 18.6133C33.2667 14.8 29.8533 12 26.0133 12H19C18.2667 12 17.6667 12.6 17.6667 13.3333V24H16.3333C15.6 24 15 24.6 15 25.3333C15 26.0667 15.6 26.6667 16.3333 26.6667H17.6667V29.3333H16.3333C15.6 29.3333 15 29.9333 15 30.6667C15 31.4 15.6 32 16.3333 32H17.6667V34.6667C17.6667 35.4 18.2667 36 19 36ZM26.3333 24H20.3333V14.6667H26.3333C28.9067 14.6667 31 16.76 31 19.3333C31 21.9067 28.9067 24 26.3333 24Z" fill="white"/>
</svg>
