<svg width="49" height="48" viewBox="0 0 49 48" fill="none" xmlns="http://www.w3.org/2000/svg">
<path d="M0.332031 24C0.332031 10.7452 11.0772 0 24.332 0C37.5869 0 48.332 10.7452 48.332 24C48.332 37.2548 37.5869 48 24.332 48C11.0772 48 0.332031 37.2548 0.332031 24Z" fill="white"/>
<path d="M0.332031 24C0.332031 10.7452 11.0772 0 24.332 0C37.5869 0 48.332 10.7452 48.332 24C48.332 37.2548 37.5869 48 24.332 48C11.0772 48 0.332031 37.2548 0.332031 24Z" stroke="#E5E7EB"/>
<path d="M12.3314 15.9987C11.598 15.9987 10.998 15.3987 10.998 14.6654V10.6654C10.998 9.93203 11.598 9.33203 12.3314 9.33203H16.3314C17.0647 9.33203 17.6647 9.93203 17.6647 10.6654C17.6647 11.3987 17.0647 11.9987 16.3314 11.9987H13.6647V14.6654C13.6647 15.3987 13.0647 15.9987 12.3314 15.9987ZM30.998 10.6654C30.998 11.3987 31.598 11.9987 32.3314 11.9987H34.998V14.6654C34.998 15.3987 35.598 15.9987 36.3314 15.9987C37.0647 15.9987 37.6647 15.3987 37.6647 14.6654V10.6654C37.6647 9.93203 37.0647 9.33203 36.3314 9.33203H32.3314C31.598 9.33203 30.998 9.93203 30.998 10.6654ZM12.3314 31.9987C11.598 31.9987 10.998 32.5987 10.998 33.332V37.332C10.998 38.0654 11.598 38.6654 12.3314 38.6654H16.3314C17.0647 38.6654 17.6647 38.0654 17.6647 37.332C17.6647 36.5987 17.0647 35.9987 16.3314 35.9987H13.6647V33.332C13.6647 32.5987 13.0647 31.9987 12.3314 31.9987ZM30.998 37.332C30.998 38.0654 31.598 38.6654 32.3314 38.6654H36.3314C37.0647 38.6654 37.6647 38.0654 37.6647 37.332V33.332C37.6647 32.5987 37.0647 31.9987 36.3314 31.9987C35.598 31.9987 34.998 32.5987 34.998 33.332V35.9987H32.3314C31.598 35.9987 30.998 36.5987 30.998 37.332ZM33.6647 31.9987C33.6647 33.4654 32.4647 34.6654 30.998 34.6654H17.6647C16.198 34.6654 14.998 33.4654 14.998 31.9987V15.9987C14.998 14.532 16.198 13.332 17.6647 13.332H30.998C32.4647 13.332 33.6647 14.532 33.6647 15.9987V31.9987ZM20.3314 19.9987C20.3314 20.732 20.9314 21.332 21.6647 21.332H26.998C27.7314 21.332 28.3314 20.732 28.3314 19.9987C28.3314 19.2654 27.7314 18.6654 26.998 18.6654H21.6647C20.9314 18.6654 20.3314 19.2654 20.3314 19.9987ZM20.3314 23.9987C20.3314 24.732 20.9314 25.332 21.6647 25.332H26.998C27.7314 25.332 28.3314 24.732 28.3314 23.9987C28.3314 23.2654 27.7314 22.6654 26.998 22.6654H21.6647C20.9314 22.6654 20.3314 23.2654 20.3314 23.9987ZM20.3314 27.9987C20.3314 28.732 20.9314 29.332 21.6647 29.332H26.998C27.7314 29.332 28.3314 28.732 28.3314 27.9987C28.3314 27.2654 27.7314 26.6654 26.998 26.6654H21.6647C20.9314 26.6654 20.3314 27.2654 20.3314 27.9987Z" fill="#566DD6"/>
</svg>
