<?xml version="1.0" encoding="UTF-8"?>
<!DOCTYPE svg PUBLIC "-//W3C//DTD SVG 1.1//EN" "http://www.w3.org/Graphics/SVG/1.1/DTD/svg11.dtd">
<!-- Creator: CorelDRAW -->
<svg xmlns="http://www.w3.org/2000/svg" xml:space="preserve" width="210mm" height="297mm" version="1.1" style="shape-rendering:geometricPrecision; text-rendering:geometricPrecision; image-rendering:optimizeQuality; fill-rule:evenodd; clip-rule:evenodd"
viewBox="0 0 21000 29700"
 xmlns:xlink="http://www.w3.org/1999/xlink"
 xmlns:xodm="http://www.corel.com/coreldraw/odm/2003">
 <defs>
  <style type="text/css">
   <![CDATA[
    .fil2 {fill:#B2B2B2}
    .fil0 {fill:#B43522}
    .fil1 {fill:#C5C5C4}
    .fil3 {fill:#E31E24}
   ]]>
  </style>
 </defs>
 <g id="Слой_x0020_1">
  <metadata id="CorelCorpID_0Corel-Layer"/>
  <g id="_1828439648">
   <path class="fil0" d="M15102.63 14194.08c-13.82,-175.07 -1.87,-937.33 -1.87,-1176.87 0,-231.59 11.96,-3463.51 -5.14,-3526.03 -871.78,13.9 -1558.08,-397.47 -1973.28,-804.39 -235.75,-231.04 -422.34,-516.11 -566.86,-821.81 -325.64,-688.79 -325.18,-1596.42 2.61,-2283.05 87.5,-183.3 208.08,-396.07 328.38,-543.63 26.84,-32.91 49.83,-67.75 75.03,-94.42 60.79,-64.33 106.77,-124.12 166.24,-180.79 517.7,-493.27 1187.61,-812.56 1972.72,-800.38l0.61 -682.17c-834.27,0 -1546.76,256.27 -2173.73,748.73 -206.88,162.49 -329.45,297.25 -496.91,485.22 -80.49,90.36 -170.15,218.35 -238.28,320.52l-202.66 347.67c-121.25,243.52 -236.23,564.16 -288.57,829.04 -21.7,109.82 -45.75,241.24 -55.94,358.92 -3.25,37.53 -4.93,91.44 -10.56,133.38 -2.36,17.63 -4.38,35.7 -6.14,54.09l0 380.24c31.79,420.29 155.01,901.76 304.8,1210.53 30.88,63.64 54.7,127.47 91.5,187.9l472.94 915.59c32.45,65.1 64,119.52 95.96,183.44 62.55,125.09 124.9,241.55 188.99,369.81 17.15,34.32 31.89,54.55 48.14,87.33l332.96 649.17c149.89,299.82 327.83,621.28 477.06,919.95 32.72,65.48 59.73,121.11 92.91,186.49l762.12 1473.07c16.55,33.09 29.87,59.69 45.1,90.38 16.83,33.94 34.09,59.07 50.92,93.01 30.65,61.79 61.18,125.39 92.96,186.44l389.58 728.02 28.41 -25.4z"/>
   <path class="fil1" d="M15186.02 3966c410.18,8.58 758.7,123.13 1084.53,268.71 160.46,71.68 297.98,165.84 423.82,253.49 37.22,25.92 62.59,46.37 96.53,72.89 34.66,27.08 60.76,52.4 92.14,77.06 285.06,224.07 579.43,647.48 720.55,972.63 144.03,331.83 237.36,713.42 234.73,1124.16 -9.63,1502.11 -1188.07,2694.03 -2654.08,2753.51 -11.72,7.89 -0.14,9.12 -33.36,13.87 -25.7,3.68 -19.45,1.12 -40.18,-5.65 0,433.68 -10.7,4647.94 5.85,4676.68 31.75,-13.68 83.85,-138.51 98.78,-168.36l928.51 -1797.76c180.16,-360.31 381.53,-729.17 561.63,-1089.37l279.4 -541.87c32.52,-65.04 61.06,-113.56 93.13,-177.8l465.67 -905.94c31.83,-63.87 60.65,-112.83 93.13,-177.8l561.74 -1089.34c16.35,-46.61 -15.45,-11.17 25.24,-93.17 14.01,-28.24 29.64,-66 41.27,-94.24 155.84,-378.36 240.14,-775.44 255.11,-1173.7l0 -257.54c-21.52,-578.06 -188.3,-1150.6 -493.71,-1663.81 -19.1,-32.1 -33.88,-50.97 -53.05,-82.42 -67.38,-110.52 -262.13,-370.45 -352.75,-460.05 -23.96,-23.69 -50.54,-46.92 -71.66,-72.27 -58.58,-70.32 -141.89,-134.22 -207.91,-198.49 -236.47,-230.21 -624.69,-446.42 -926.23,-580.84 -64.83,-28.9 -131.67,-55.18 -200.71,-78.69 -138.97,-47.3 -283.2,-87.98 -430.74,-119.6 -73.54,-15.76 -419.57,-79.69 -489.05,-52.86l-183.82 -11.47 0.17 672.56c32.66,-13.12 48.36,-6.92 75.32,7.48z"/>
   <path class="fil2" d="M15102.63 14194.08c16.89,-13.16 7.38,-5.36 13.92,-20.73 -16.55,-28.74 -5.85,-4243 -5.85,-4676.68 20.73,6.77 14.48,9.33 40.18,5.65 33.22,-4.75 21.64,-5.98 33.36,-13.87l-70.25 2.02 3.3 -647.16c-406.16,29.67 -931.98,-142.86 -1247.11,-370.91 -522.98,-378.48 -923.15,-958.78 -920.25,-1754.39 1.55,-427.34 144.33,-894.54 388.58,-1219.22 35.7,-47.45 142.21,-189.55 181.01,-225.55 145.07,-134.61 174.47,-181.95 361.93,-307 104.98,-70.03 213.85,-134.03 343.47,-189.82 226.51,-97.51 607.57,-199.95 889.31,-173.75l-0.12 -639.21 71.91 2.54c-26.96,-14.4 -42.66,-20.6 -75.32,-7.48l-0.17 -672.56 183.82 11.47c-4.65,-11.11 -4.47,-15.38 -6.17,-16.89l-93.18 0c-29.19,0.26 -58.49,0.03 -87.68,0l-6.25 0 -0.61 682.17c-785.11,-12.18 -1455.02,307.11 -1972.72,800.38 -59.47,56.67 -105.45,116.46 -166.24,180.79 -25.2,26.67 -48.19,61.51 -75.03,94.42 -120.3,147.56 -240.88,360.33 -328.38,543.63 -327.79,686.63 -328.25,1594.26 -2.61,2283.05 144.52,305.7 331.11,590.77 566.86,821.81 415.2,406.92 1101.5,818.29 1973.28,804.39 17.1,62.52 5.14,3294.44 5.14,3526.03 0,239.54 -11.95,1001.8 1.87,1176.87z"/>
   <path class="fil0" d="M15114.23 4602.67c527.14,-18.86 1132.51,277.96 1466.41,625.82 1051.14,1095.1 693.2,2800.72 -610.34,3418.34 -217.33,102.97 -573.95,205.2 -853.01,196.48l-3.3 647.16 70.25 -2.02c1466.01,-59.48 2644.45,-1251.4 2654.08,-2753.51 2.63,-410.74 -90.7,-792.33 -234.73,-1124.16 -141.12,-325.15 -435.49,-748.56 -720.55,-972.63 -31.38,-24.66 -57.48,-49.98 -92.14,-77.06 -33.94,-26.52 -59.31,-46.97 -96.53,-72.89 -125.84,-87.65 -263.36,-181.81 -423.82,-253.49 -325.83,-145.58 -674.35,-260.13 -1084.53,-268.71l-71.91 -2.54 0.12 639.21z"/>
   <path class="fil3" d="M15743.49 7419.24l215.27 -0.73 -0.31 162.36 -214.12 -0.11 -0.84 -161.52zm-1300.35 56.95l157.89 -3.34 2.35 108.01 -160.07 -0.86 -0.17 -103.81zm-325.75 -2.99l159.9 0.01 1.75 107.65 -161.56 0.01 -0.09 -107.67zm325.47 -216.81l160.4 0 0.16 107.65 -161.03 0 0.47 -107.65zm-325.99 0l161.48 0 0.73 107.65 -162.21 0 0 -107.65zm1626.58 -106.82l215.31 -0.65 -0.47 160.63 -213.6 -0.1 -1.24 -159.88zm-1300.79 -106.19c39.78,-7.35 123.2,-9.19 160.76,1.49l-0.33 98.84 -158.79 3.34 -1.64 -103.67zm-326.2 -3.67l162.69 -0.01 -1.04 107.64 -157.45 -0.02 -4.2 -107.61zm1627.12 -161.55l33.37 -0.78 181.64 0.13 0.17 162.27 -215.18 -0.11 0 -161.51zm-1300.71 -1221.61c57.68,7.45 983.39,316.38 1027.7,341.37l-0.08 1689.49 -266.23 1.07c-5.25,-213.45 -17.45,-148.87 54.13,-193.76 23.75,-14.9 40.19,-30.71 54.21,-47.47 113.68,-135.95 20.57,-349.02 -162.02,-352.98 -219.34,-4.74 -299.13,281.52 -121.74,397.11 75.06,48.92 63.14,-24.19 61.87,197.05l-266.22 -0.19 -2.74 -865.27 -375.97 -0.18 -2.91 -1166.24zm1300.65 950.18l215.24 -0.76 -0.21 162.36 -214.49 -0.1 -0.54 -161.5zm-0.06 -269.84l215.3 -0.63 -0.42 160.61 -213.78 -0.1 -1.1 -159.88zm-1841.78 1462.45l2275.42 -0.11 -0.09 -1681.44 -597 0 -3.84 -196.18c-15.58,-12.13 -14.41,-11.53 -40.38,-20.89l-117.97 -36.18 -0.13 -340.92 -109.3 -1.64 0 297.4c-32.68,-1.39 -91.56,-14.42 -107.55,-41.17l0 -256.14 -109.09 0.46 -2.53 229.61 -755.21 -248.81 -3.08 1319.37 -158.93 -1 -0.54 -270.2 -109.18 0 0 265.29c-48.61,15.68 -108.29,3.11 -162.11,7.77l1.51 974.78z"/>
   <polygon class="fil3" points="14550.48,6279.96 14583.13,6282.01 15366.32,6281.66 15362.93,6172.47 14550.48,6172.57 "/>
   <polygon class="fil3" points="14552.77,6715.28 15361.88,6715.35 15362.93,6606.08 14550.12,6607.55 "/>
   <polygon class="fil3" points="14929.76,6932.16 15362.93,6932.16 15363.66,6853.39 15358.91,6822.96 14932.19,6822.86 14929.49,6853.48 "/>
   <polygon class="fil3" points="14550.28,6497.22 14983.99,6498.55 14983.28,6389.27 14551.74,6389.39 "/>
   <polygon class="fil3" points="14550.85,6063.85 14875.02,6064.46 14876.66,5958.79 14550.48,5955.63 "/>
   <polygon class="fil3" points="15091.41,6498.02 15363.02,6500.34 15363.19,6390.96 15092.98,6389.37 "/>
  </g>
 </g>
</svg>
